<svg xmlns="http://www.w3.org/2000/svg" x="0px" y="0px" width="564.255px" height="564.255px" viewBox="0 0 564.255 564.255">
<g>
	<g id="iconos_53_">
		<path fill="#f48942" d="M334.052,493.263c8.339,0,10.796-15.138,0-15.138c-9.562,0-22.711,4.781-30.485,19.718s-18.532,20.32-31.078,20.32
			s-36.452-5.977-36.452-35.859s15.386-40.048,30.256-40.048s35.333,4.188,35.333,4.188l-0.774-54.382h-36.251l0.421,17.031
			c-74.109,0-82.629,48.262-82.629,73.956s11.876,81.205,77.619,81.205c65.743,0,63.313-63.094,63.313-63.094
			S321.697,493.263,334.052,493.263z"/>
		<polygon fill="#f48942" points="324.489,382.5 324.489,353.812 247.989,353.812 247.989,382.5 264.36,382.5 300.717,382.5 		"/>
		<rect fill="#f48942" x="219.302" width="28.688" height="124.312"/>
		<rect fill="#f48942" x="334.052" width="28.688" height="124.312"/>
		<path fill="#f48942" d="M381.864,242.964V133.875h-19.125h-28.688h-86.062h-28.688h-28.688v109.108l37.399,101.267h10.414h9.562h76.5h9.562h9.257
			L381.864,242.964z M286.908,185.876c10.548,0,19.125,8.578,19.125,19.125s-8.577,19.125-19.125,19.125
			c-10.547,0-19.125-8.578-19.125-19.125S276.361,185.876,286.908,185.876z"/>
	</g>
</g>
</svg>
